HIERARCHY
ROOT Hips
{
  OFFSET 0 0 0
  CHANNELS 6 Xposition Yposition Zposition Zrotation Xrotation Yrotation
  JOINT LeftUpLeg
  {
    OFFSET 4.06525 -3.90732 0.41711
    CHANNELS 3 Zrotation Xrotation Yrotation
    JOINT LeftLeg
    {
      OFFSET 0.00023 -18.4821 0.00367
      CHANNELS 3 Zrotation Xrotation Yrotation
      JOINT LeftFoot
      {
        OFFSET -0.00172 -15.2898 -0.02629
        CHANNELS 3 Zrotation Xrotation Yrotation
        JOINT LeftToeBase
        {
          OFFSET 0.36743 -3.19131 5.54287
          CHANNELS 3 Zrotation Xrotation Yrotation
          JOINT LeftToeBase2
          {
            OFFSET 0.08751 0.04849 1.36758
            CHANNELS 3 Zrotation Xrotation Yrotation
            JOINT LeftToeBase3
            {
              OFFSET 0.07484 0.06785 1.16707
            }
          }
        }
      }
    }
  }
  JOINT RightUpLeg
  {
    OFFSET -4.06526 -3.90731 0.41712
    CHANNELS 3 Zrotation Xrotation Yrotation
    JOINT RightLeg
    {
      OFFSET -0.00029 -18.4821 0.0044
      CHANNELS 3 Zrotation Xrotation Yrotation
      JOINT RightFoot
      {
        OFFSET 0.0016 -15.2898 -0.02569
        CHANNELS 3 Zrotation Xrotation Yrotation
        JOINT RightToeBase
        {
          OFFSET -0.3542 -3.19109 5.54386
          CHANNELS 3 Zrotation Xrotation Yrotation
          JOINT RightToeBase2
          {
            OFFSET -0.08424 0.04854 1.36778
            CHANNELS 3 Zrotation Xrotation Yrotation
            JOINT RightToeBase3
            {
              OFFSET -0.07205 0.0679 1.16725
            }
          }
        }
      }
    }
  }
  JOINT Spine
  {
    OFFSET 1e-005 4.46517 -0.10224
    CHANNELS 3 Zrotation Xrotation Yrotation
    JOINT Spine1
    {
      OFFSET 1e-005 4.46212 -0.1824
      CHANNELS 3 Zrotation Xrotation Yrotation
      JOINT Spine2
      {
        OFFSET 0 4.37937 -0.881
        CHANNELS 3 Zrotation Xrotation Yrotation
        JOINT Spine3
        {
          OFFSET 1e-005 4.68286 0.21414
          CHANNELS 3 Zrotation Xrotation Yrotation
          JOINT Neck
          {
            OFFSET 0 1.76964 0.82454
            CHANNELS 3 Zrotation Xrotation Yrotation
            JOINT Head
            {
              OFFSET 0 1.6961 0.93145
              CHANNELS 3 Zrotation Xrotation Yrotation
              JOINT Head_End
              {
                OFFSET 1e-005 7.8375 1.52603
              }
            }
          }
          JOINT LeftShoulder
          {
            OFFSET 1.19381 -0.75881 -0.02768
            CHANNELS 3 Zrotation Xrotation Yrotation
            JOINT LeftArm
            {
              OFFSET 5.18779 -2e-005 1e-005
              CHANNELS 3 Zrotation Xrotation Yrotation
              JOINT LeftForeArm
              {
                OFFSET 12.7364 -4e-005 2e-005
                CHANNELS 3 Zrotation Xrotation Yrotation
                JOINT LeftHand
                {
                  OFFSET 9.21452 -2e-005 1e-005
                  CHANNELS 3 Zrotation Xrotation Yrotation
                }
              }
            }
          }
          JOINT RightShoulder
          {
            OFFSET -1.19381 -0.75881 -0.02767
            CHANNELS 3 Zrotation Xrotation Yrotation
            JOINT RightArm
            {
              OFFSET -5.18779 1e-005 -1e-005
              CHANNELS 3 Zrotation Xrotation Yrotation
              JOINT RightForeArm
              {
                OFFSET -12.7364 3e-005 -2e-005
                CHANNELS 3 Zrotation Xrotation Yrotation
                JOINT RightHand
                {
                  OFFSET -9.21452 2e-005 -1e-005
                  CHANNELS 3 Zrotation Xrotation Yrotation
                }
              }
            }
          }
        }
      }
    }
  }
}
MOTION
Frames: 15
Frame Time: 	0.0166667
-0.601292 5.61401 -0.483169 12.3395 -41.0026 10.1668 67.1001 -68.9901 58.2108  -79.509 60.6998 56.2175  5.77693 21.065 0.0386761  -1.2921e-011 -1.85426e-012 -1.45909e-010  -0 0 -0   -89.9867 -70.8578 -81.2947  82.7086 76.3208 -59.6102  -5.86144 24.7593 -0.149874  -1.46258e-011 6.37383e-012 -2.72578e-010  -0 0 -0   -8.6955 41.726 -0.335378  -0.682953 6.97451 0.129541  -0.699248 6.9707 0.154769  -0.717359 6.96657 0.179262  -7.41268e-013 1.46306e-013 6.00528e-013  -4.31677 -18.8009 0.224048   -0.717222 -0.974823 -0.283258  -17.0368 7.85863 -69.351  27.9123 24.8818 -50.9973  -12.7895 0.0138722 -3.41429  1.18524 -1.10201 0.541517  33.1932 7.13068 69.1364  -41.6737 35.4746 58.2182  7.30287 -0.52767 11.3677 
-0.606785 5.61606 -0.484585 12.3135 -40.989 10.1011 67.2136 -68.9262 58.3071  -79.5165 60.6868 56.1996  5.78062 21.0633 0.0386231  -1.2921e-011 -1.85426e-012 -1.45909e-010  -0 0 -0   -89.9754 -70.9375 -81.3031  82.5919 76.3271 -59.524  -5.84909 24.7596 -0.153778  -1.46258e-011 6.37383e-012 -2.72578e-010  -0 0 -0   -8.72506 41.6975 -0.29461  -0.685112 6.97572 0.135473  -0.701487 6.97185 0.160736  -0.719677 6.96766 0.185268  -7.41268e-013 1.46306e-013 6.00528e-013  -4.43897 -18.8759 -0.413148   -0.716869 -0.974796 -0.281671  -17.0473 7.85296 -69.3252  27.9903 24.9496 -51.0314  -12.7714 0.0140667 -3.40689  1.18669 -1.10214 0.541748  33.2159 7.14085 69.1463  -41.6866 35.5017 58.2167  7.30305 -0.527412 11.3689 
-0.610835 5.6186 -0.483369 12.3062 -40.9839 10.0878 67.244 -68.9075 58.3319  -79.5224 60.6876 56.1919  5.77882 21.0596 0.0393988  -1.2921e-011 -1.85426e-012 -1.45909e-010  -0 0 -0   -89.9703 -70.9356 -81.2956  82.6598 76.2869 -59.5887  -5.88258 24.7597 -0.140944  -1.46258e-011 6.37383e-012 -2.72578e-010  -0 0 -0   -8.72674 41.6749 -0.297772  -0.687391 6.97676 0.137757  -0.703896 6.97283 0.163349  -0.7222 6.96858 0.188076  -7.41268e-013 1.46306e-013 6.00528e-013  -4.58571 -18.9556 -1.21067   -0.716473 -0.974788 -0.281142  -17.0655 7.85391 -69.297  28.0647 25.0196 -51.0596  -12.7555 0.014264 -3.40365  1.18947 -1.10228 0.542218  33.2385 7.15566 69.1521  -41.6958 35.5315 58.2103  7.30257 -0.52681 11.3742 
-0.613634 5.62107 -0.481276 12.32 -40.9865 10.0994 67.2166 -68.8978 58.3026  -79.5376 60.6775 56.1979  5.78214 21.0518 0.0375027  -1.2921e-011 -1.85426e-012 -1.45909e-010  -0 0 -0   -89.9673 -70.9072 -81.283  82.7859 76.2475 -59.6972  -5.92706 24.7596 -0.124335  -1.46258e-011 6.37383e-012 -2.72578e-010  -0 0 -0   -8.72599 41.6595 -0.314495  -0.690389 6.97816 0.138762  -0.707097 6.97418 0.165097  -0.72554 6.96987 0.190022  -7.41268e-013 1.46306e-013 6.00528e-013  -4.765 -19.0571 -2.16641   -0.716013 -0.974798 -0.279857  -17.0858 7.85643 -69.2677  28.1298 25.084 -51.0815  -12.7438 0.0144636 -3.40031  1.19115 -1.10241 0.542824  33.2618 7.17188 69.1583  -41.7028 35.564 58.2006  7.30261 -0.525803 11.381 
-0.615619 5.6233 -0.479524 12.3674 -41.0063 10.1173 67.1192 -68.8549 58.1986  -79.5838 60.6245 56.2288  5.80603 21.037 0.0290962  -1.2921e-011 -1.85426e-012 -1.45909e-010  -0 0 -0   -89.9389 -70.8977 -81.2501  82.8867 76.2533 -59.7793  -5.95681 24.7592 -0.113573  -1.46258e-011 6.37383e-012 -2.72578e-010  -0 0 -0   -8.75697 41.6615 -0.313172  -0.695536 6.98049 0.139287  -0.712472 6.97646 0.166096  -0.731119 6.97209 0.191244  -7.41268e-013 1.46306e-013 6.00528e-013  -4.99058 -19.1988 -3.29352   -0.715509 -0.974824 -0.278347  -17.102 7.85631 -69.2384  28.178 25.1348 -51.0953  -12.74 0.0146649 -3.39724  1.19251 -1.10254 0.543318  33.2878 7.18654 69.1692  -41.7091 35.5997 58.1886  7.30361 -0.524335 11.386 
-0.614756 5.62317 -0.477344 12.4319 -41.0287 10.1543 66.9933 -68.826 58.07  -79.6388 60.5609 56.2778  5.83458 21.0228 0.0189168  -1.2921e-011 -1.85426e-012 -1.45909e-010  -0 0 -0   -89.939 -70.8743 -81.2425  82.995 76.2767 -59.8605  -5.9793 24.758 -0.105946  -1.46258e-011 6.37383e-012 -2.72578e-010  -0 0 -0   -8.77832 41.6654 -0.328294  -0.702224 6.98484 0.139415  -0.719387 6.98076 0.166455  -0.738268 6.97635 0.191876  -7.41268e-013 1.46306e-013 6.00528e-013  -5.2481 -19.3701 -4.56924   -0.71497 -0.974866 -0.276623  -17.1186 7.85463 -69.2106  28.2088 25.1718 -51.1004  -12.7421 0.0148673 -3.39526  1.19362 -1.10268 0.543456  33.308 7.19847 69.1879  -41.711 35.636 58.1722  7.31637 -0.522344 11.3883 
-0.607276 5.61679 -0.473871 12.5117 -41.0415 10.2303 66.8624 -68.8582 57.9495  -79.6924 60.5036 56.3539  5.85785 21.0163 0.0102612  -1.2921e-011 -1.85426e-012 -1.45909e-010  -0 0 -0   -90.0412 -70.8081 -81.3272  83.1251 76.3149 -59.9464  -5.98927 24.7683 -0.103799  -1.46258e-011 6.37383e-012 -2.72578e-010  -0 0 -0   -8.75263 41.6586 -0.396512  -0.711257 6.98967 0.139225  -0.728692 6.98559 0.166288  -0.747874 6.98119 0.192055  -7.41268e-013 1.46306e-013 6.00528e-013  -5.53376 -19.5731 -5.9882   -0.714405 -0.974922 -0.274696  -17.1398 7.85044 -69.1873  28.2176 25.1899 -51.0952  -12.7517 0.0150702 -3.39281  1.1945 -1.10281 0.542992  33.3077 7.20412 69.2223  -41.7011 35.6674 58.1472  7.35631 -0.518109 11.3837 
-0.598798 5.60928 -0.470606 12.5749 -41.0476 10.3045 66.7638 -68.9109 57.8644  -79.7322 60.4664 56.4224  5.87298 21.0144 0.00446304  -1.2921e-011 -1.85426e-012 -1.45909e-010  -0 0 -0   -90.1569 -70.7321 -81.4229  83.2477 76.3375 -60.0251  -5.99923 24.7821 -0.101593  -1.46258e-011 6.37383e-012 -2.72578e-010  -0 0 -0   -8.70224 41.6438 -0.47986  -0.720019 6.99438 0.138801  -0.737717 6.99032 0.165707  -0.757214 6.98594 0.191914  -7.41268e-013 1.46306e-013 6.00528e-013  -5.82902 -19.7865 -7.51092   -0.713824 -0.974993 -0.272577  -17.1598 7.8456 -69.1658  28.2091 25.1958 -51.0812  -12.7607 0.0152734 -3.38771  1.19521 -1.10295 0.54168  33.3083 7.20769 69.2614  -41.6921 35.703 58.1209  7.40904 -0.512536 11.3779 
-0.593457 5.60427 -0.468824 12.5746 -41.0431 10.3405 66.7651 -68.9719 57.8779  -79.7326 60.4859 56.4442  5.86878 21.0145 0.0022138  -1.2921e-011 -1.85426e-012 -1.45909e-010  -0 0 -0   -90.2224 -70.6608 -81.4695  83.3442 76.2943 -60.0919  -6.02472 24.794 -0.0926616  -1.46258e-011 6.37383e-012 -2.72578e-010  -0 0 -0   -8.61928 41.6159 -0.562507  -0.7253 6.99822 0.138222  -0.743211 6.9942 0.164823  -0.762999 6.98986 0.191591  -7.41268e-013 1.46306e-013 6.00528e-013  -6.12037 -19.9919 -9.09914   -0.713238 -0.975077 -0.270277  -17.1755 7.84194 -69.1437  28.1867 25.1931 -51.0587  -12.7607 0.0154764 -3.36693  1.19574 -1.10309 0.538056  33.3246 7.2121 69.2986  -41.6931 35.7501 58.0984  7.46675 -0.506546 11.3739 
-0.591941 5.60237 -0.46836 12.5536 -41.0358 10.3448 66.8031 -69.0026 57.9207  -79.7234 60.5105 56.4416  5.86286 21.0157 0.00149242  -1.2921e-011 -1.85426e-012 -1.45909e-010  -0 0 -0   -90.2412 -70.6217 -81.4774  83.3926 76.2409 -60.1265  -6.05137 24.8023 -0.0826959  -1.46258e-011 6.37383e-012 -2.72578e-010  -0 0 -0   -8.55706 41.5864 -0.614442  -0.729684 7.00124 0.137572  -0.747748 6.99744 0.16375  -0.767803 6.99311 0.191219  -7.41268e-013 1.46306e-013 6.00528e-013  -6.3877 -20.1864 -10.7404   -0.712647 -0.975174 -0.267313  -17.183 7.83857 -69.1232  28.156 25.1856 -51.0304  -12.7548 0.0156784 -3.34132  1.19624 -1.10323 0.536146  33.3622 7.21776 69.3284  -41.7086 35.8085 58.0837  7.52546 -0.500693 11.375 
-0.599078 5.6067 -0.469529 12.5509 -41.0349 10.3016 66.838 -68.9311 57.9393  -79.7338 60.4813 56.4216  5.87122 21.017 0.00149346  -1.2921e-011 -1.85426e-012 -1.45909e-010  -0 0 -0   -90.1938 -70.671 -81.4411  83.3528 76.2268 -60.1012  -6.07238 24.8029 -0.0741551  -1.46258e-011 6.37383e-012 -2.72578e-010  -0 0 -0   -8.60239 41.564 -0.572419  -0.735354 7.00383 0.13693  -0.753446 6.99978 0.162598  -0.773704 6.99537 0.190935  -7.41268e-013 1.46306e-013 6.00528e-013  -6.60918 -20.3637 -12.4135   -0.712093 -0.975281 -0.265531  -17.1684 7.8354 -69.1075  28.1243 25.18 -50.9982  -12.7421 0.015879 -3.31997  1.19672 -1.10337 0.534759  33.4443 7.228 69.3364  -41.7518 35.8843 58.0867  7.57369 -0.496492 11.3895 
-0.606576 5.61334 -0.47216 12.5341 -41.0418 10.2446 66.864 -68.8451 57.9464  -79.74 60.4565 56.3906  5.88353 21.0176 0.00141195  -1.2921e-011 -1.85426e-012 -1.45909e-010  -0 0 -0   -90.0851 -70.7372 -81.3483  83.2657 76.219 -60.0387  -6.08053 24.797 -0.0701359  -1.46258e-011 6.37383e-012 -2.72578e-010  -0 0 -0   -8.64644 41.552 -0.521041  -0.740319 7.00594 0.13638  -0.758437 7.00179 0.161481  -0.778921 6.9973 0.190875  -7.41268e-013 1.46306e-013 6.00528e-013  -6.77558 -20.5193 -14.1046   -0.711575 -0.9754 -0.264321  -17.1583 7.83179 -69.0914  28.0895 25.1719 -50.9639  -12.7255 0.0160774 -3.29731  1.19723 -1.10351 0.533793  33.5333 7.23709 69.3422  -41.8054 35.9669 58.0962  7.62613 -0.491903 11.4054 
-0.605832 5.62028 -0.476734 12.4651 -41.0624 10.1999 66.8697 -68.8204 57.9473  -79.7234 60.4887 56.355  5.89639 21.0165 0.00100151  -1.2921e-011 -1.85426e-012 -1.45909e-010  -0 0 -0   -89.8882 -70.7589 -81.1586  83.1445 76.1912 -59.9384  -6.0596 24.7809 -0.0769399  -1.46258e-011 6.37383e-012 -2.72578e-010  -0 0 -0   -8.57845 41.5587 -0.540555  -0.742548 7.00858 0.136003  -0.760809 7.00403 0.160511  -0.781589 6.99956 0.190797  -7.41268e-013 1.46306e-013 6.00528e-013  -6.87098 -20.6546 -15.8014   -0.71109 -0.975529 -0.262941  -17.1851 7.82827 -69.0679  28.0545 25.1618 -50.9307  -12.706 0.0162734 -3.26886  1.19769 -1.10364 0.533149  33.5934 7.23992 69.363  -41.8569 36.0493 58.104  7.69478 -0.485204 11.4107 
-0.602574 5.62493 -0.4816 12.4011 -41.0936 10.1749 66.8333 -68.8205 57.9131  -79.6971 60.5349 56.3223  5.9041 21.0166 0.000701969  -1.2921e-011 -1.85426e-012 -1.45909e-010  -0 0 -0   -89.6799 -70.7619 -80.9535  83.0313 76.1729 -59.8415  -6.02971 24.7651 -0.0873336  -1.46258e-011 6.37383e-012 -2.72578e-010  -0 0 -0   -8.491 41.5787 -0.580559  -0.744653 7.01149 0.13588  -0.763106 7.00735 0.159801  -0.784158 7.00289 0.190411  -7.41268e-013 1.46306e-013 6.00528e-013  -6.89359 -20.749 -17.4777   -0.710635 -0.975666 -0.260645  -17.2181 7.82114 -69.0462  28.011 25.1425 -50.8962  -12.6892 0.0164663 -3.24048  1.19801 -1.10378 0.532725  33.6416 7.23803 69.3922  -41.905 36.1278 58.1105  7.77623 -0.477104 11.4134 
-0.600074 5.62274 -0.485729 12.393 -41.1459 10.1895 66.6992 -68.8314 57.788  -79.663 60.5747 56.2995  5.8961 21.0215 0.000736748  -1.2921e-011 -1.85426e-012 -1.45909e-010  -0 0 -0   -89.5009 -70.7538 -80.7751  82.9714 76.1909 -59.789  -6.00499 24.7596 -0.0964667  -1.46258e-011 6.37383e-012 -2.72578e-010  -0 0 -0   -8.44626 41.6224 -0.613268  -0.74728 7.0147 0.136093  -0.765941 7.01107 0.159463  -0.787207 7.00662 0.189775  -7.41268e-013 1.46306e-013 6.00528e-013  -6.83071 -20.78 -19.1104   -0.7102 -0.975812 -0.25631  -17.2337 7.80242 -69.0363  27.951 25.1033 -50.8588  -12.6818 0.0166554 -3.21681  1.19821 -1.10392 0.532421  33.6825 7.22765 69.4321  -41.9444 36.1956 58.1143  7.87444 -0.467386 11.418 
